# xmcd CD database file
#
# Track frame offsets:
#	150
#	11871
#	31590
#	54496
#	64593
#	85256
#
# Disc length: 1486 seconds
#
# Revision: 0
# Processed by: cddbd v1.5.2PL0 Copyright (c) Steve Scherf et al.
# Submitted via: CDex 1.50
#
DISCID=4005cc06
DTITLE=Egopusher - Egopusher
DYEAR=2015
DGENRE=Jazz
TTITLE0=Purple Air
TTITLE1=Sunbeam Scream
TTITLE2=Dirt
TTITLE3=Napalm Beach
TTITLE4=Ego Eins
TTITLE5=William
EXTD=YEAR: 2015
EXTT0=
EXTT1=
EXTT2=
EXTT3=
EXTT4=
EXTT5=
PLAYORDER=
